<svg style="display:none"> <symbol viewBox="0 0 297 297" id="button-busket"><path d="M286.58 103.488h-30.204L190.39 37.502c-4.07-4.07-10.667-4.07-14.738 0-4.07 4.07-4.07 10.668 0 14.738l51.25 51.248h-36.367V78.033c0-10.56-8.593-19.154-19.154-19.154h-45.76c-10.56 0-19.153 8.593-19.153 19.153v25.455H70.1l51.25-51.248c4.07-4.07 4.07-10.67 0-14.738-4.07-4.067-10.666-4.07-14.737 0l-65.988 65.986H10.42c-5.754 0-10.42 4.666-10.42 10.42 0 5.756 4.666 10.422 10.42 10.422h10.607v97.396c0 22.51 18.315 40.824 40.825 40.824H235.15c22.51 0 40.822-18.314 40.822-40.824V124.33h10.606c5.755 0 10.42-4.666 10.42-10.42.002-5.756-4.664-10.422-10.42-10.422zm-112.72 44.11c0 4.604 3.733 8.337 8.337 8.337h26.348c1.017 0 1.92.608 2.302 1.55.38.942.154 2.008-.577 2.715l-60.046 58.015c-.596.575-1.266.696-1.724.696s-1.128-.12-1.724-.695L86.73 160.198c-.73-.705-.957-1.77-.576-2.71.38-.944 1.284-1.553 2.3-1.553h26.35c4.603 0 8.336-3.733 8.336-8.337V78.033c0-1.367 1.113-2.48 2.48-2.48h45.76c1.367 0 2.48 1.113 2.48 2.48v69.565z" fill="#000000"/></symbol>
<symbol viewBox="0 0 60 60" id="clock"><g fill="#FFDE24"><path d="M54 58h-3v-4h-5V43.778c0-2.7-1.342-5.208-3.59-6.706L31.804 30l10.608-7.072C44.66 21.43 46 18.922 46 16.222V6h5V2h3c.552 0 1-.447 1-1s-.448-1-1-1H6c-.552 0-1 .447-1 1s.448 1 1 1h3v4h5v10.222c0 2.7 1.342 5.208 3.59 6.706L28.196 30 17.59 37.072C15.34 38.57 14 41.078 14 43.778V54H9v4H6c-.552 0-1 .447-1 1s.448 1 1 1h48c.552 0 1-.447 1-1s-.448-1-1-1zM11 4V2h38v2H11zm7.698 17.264C17.008 20.137 16 18.252 16 16.222V6h28v10.222c0 2.03-1.01 3.915-2.698 5.042L30 28.798l-11.302-7.534zM16 43.778c0-2.03 1.01-3.915 2.698-5.042L30 31.202l11.302 7.534C42.992 39.863 44 41.748 44 43.778V54H16V43.778zM11 56h38v2H11v-2z"/><path d="M20.917 17.936c-.574-.383-.917-1.024-.917-1.714V14c0-.553-.448-1-1-1s-1 .447-1 1v2.222c0 1.36.676 2.624 1.808 3.378l4.638 3.092c.17.113.363.168.554.168.323 0 .64-.156.833-.445.306-.46.182-1.08-.277-1.387l-4.64-3.092zM40.192 41.26l-4.638-3.092c-.46-.307-1.08-.183-1.387.277-.306.46-.182 1.08.277 1.387l4.638 3.092c.575.383.918 1.023.918 1.714v2.222c0 .553.448 1 1 1s1-.447 1-1v-2.222c0-1.362-.676-2.624-1.808-3.378z"/></g></symbol>
<symbol viewBox="0 0 32.526 32.526" id="close" ><path fill="#FFDE24" d="M32.526 2.828L29.698 0 16.263 13.435 2.828 0 0 2.828l13.435 13.435L0 29.698l2.828 2.828L16.263 19.09l13.435 13.436 2.828-2.828L19.09 16.263"/></symbol>
<symbol viewBox="0 0 595.017 595.017" id="ecological"><g fill="#FFDE24"><path d="M368.294 427.216H226.72c-14.697 0-26.656 9.7-26.656 21.622s11.958 21.622 26.656 21.622h141.575c14.697 0 26.654-9.7 26.654-21.622s-11.956-21.622-26.656-21.622zM394.95 510.644c0-11.922-11.958-21.622-26.655-21.622H226.72c-14.697 0-26.656 9.7-26.656 21.622s11.958 21.622 26.656 21.622h141.575c14.7 0 26.654-9.698 26.654-21.622zM246.717 551.772c-14.697 0-26.655 9.7-26.655 21.622s11.958 21.622 26.655 21.622H348.3c14.697 0 26.654-9.7 26.654-21.622 0-11.92-11.957-21.622-26.654-21.622H246.717zM404.375 398.06c2.424-4.04 3.04-10.195 3.586-15.63.142-1.414.274-2.735.433-3.88 6.07-44 20.875-70.044 35.19-95.23 16.32-28.712 31.73-55.833 31.73-105.515C475.314 79.762 395.55 0 297.508 0c-98.042 0-177.804 79.762-177.804 177.804 0 49.673 15.407 76.79 31.72 105.5 15.297 26.925 31.114 54.762 36.27 104.36.125 11.243 9.318 20.365 20.566 20.365h178.498c7.175.002 13.925-3.82 17.617-9.97zm-136.507-36.87c15.14-92.48 37.642-127.645 44.177-136.223 2.916-3.828 2.66-6.386 1.932-7.86-.756-1.528-2.326-2.44-4.2-2.44-1.23 0-2.593.36-4.163 1.105-9.63 4.565-41.33 23.45-44.93 74.704-.003.03-.003.064-.006.095-8.65-14.12-26.99-50.52-12.604-86.24 13.33-33.096 50.942-57.897 111.798-73.718.492-.128.98-.193 1.45-.193 2.554 0 4.476 1.88 4.778 4.68 2.824 26.216 11.424 105.99-19.85 143.065-9.74 11.55-22.742 17.9-38.648 18.89-7.014.435-12.3 5.81-12.3 12.51v51.02c0 3.518-2.86 6.378-6.377 6.378h-16.07c-1.635 0-3.046-.603-3.973-1.69-.91-1.07-1.27-2.52-1.014-4.083z"/></g></symbol>
<symbol viewBox="0 0 296.609 296.609" id="save-electro"><g fill="#FFDE24"><path d="M76.548 147.93c1.712 0 3.45-.368 5.1-1.145L224.82 79.407c5.997-2.82 8.57-9.97 5.748-15.967s-9.973-8.57-15.967-5.748L71.43 125.07c-5.996 2.82-8.57 9.97-5.747 15.967 2.045 4.345 6.36 6.893 10.865 6.893zM77.34 108.782c1.734 0 3.498-.38 5.168-1.178l142.74-68.272c5.98-2.86 8.51-10.024 5.648-16.003-2.858-5.98-10.023-8.508-16.003-5.648l-142.74 68.27c-5.98 2.86-8.508 10.025-5.65 16.004 2.063 4.31 6.358 6.826 10.836 6.826zM121.01 50.09c1.73 0 3.49-.376 5.16-1.172 11.505-5.49 23.147-11.14 34.407-16.602 6.542-3.174 13.083-6.348 19.63-9.507 5.97-2.88 8.474-10.055 5.594-16.024-2.88-5.97-10.052-8.472-16.02-5.593-6.564 3.167-13.12 6.348-19.68 9.53-11.224 5.445-22.83 11.076-34.267 16.533-5.98 2.854-8.517 10.017-5.662 15.998 2.06 4.316 6.358 6.837 10.84 6.837zM214.594 134.81l-71.135 33.536c-5.995 2.826-8.564 9.977-5.738 15.972 2.047 4.342 6.36 6.886 10.862 6.886 1.714 0 3.456-.37 5.11-1.148l71.134-33.535c5.994-2.825 8.563-9.976 5.737-15.97-2.826-5.997-9.976-8.564-15.97-5.74z"/><path d="M230.964 178.384c-2.78-6.017-9.914-8.642-15.928-5.857l-50.087 23.078c-4.247 1.963-7.132 6.215-7.132 10.893v12.86h-20V205.6c0-4.192-2.02-8.08-5.603-10.257l-30.37-18.503 122.933-57.83c5.997-2.822 8.59-9.972 5.77-15.968-2.823-5.998-9.96-8.57-15.957-5.75L71.427 164.666c-5.997 2.82-8.568 9.97-5.745 15.967 1.213 2.576 3.06 4.514 5.436 5.67l42.703 26.045v7.012h-.668c-8.284 0-15.333 6.715-15.333 15v15c0 8.283 7.048 15 15.332 15h1.114c.4 17.877 15.008 32.25 32.98 32.25s32.582-14.373 32.982-32.25h.923c8.285 0 14.668-6.717 14.668-15v-15c0-7.947-6-14.434-14-14.95v-5.24l43.122-19.857c6.016-2.782 8.805-9.913 6.024-15.93z"/></g></symbol>
<symbol id="service-save" viewBox="0 0 571.199 571.199"><path d="M352.898 534.834c-1.795 5.664-7.527 9.166-13.477 9.166h-.204c-7.854 0-15.035 4.44-18.55 11.465l-.144.285c-4.732 9.467-14.408 15.45-24.996 15.45H275.67c-10.588 0-20.264-5.983-24.997-15.45l-.143-.285C247.016 548.44 239.835 544 231.98 544h-.203c-5.943 0-11.676-3.502-13.47-9.166-2.986-9.39 3.943-18.033 12.892-18.033H340c8.947 0 15.877 8.643 12.898 18.034zM141.35 383.418l-38.466 38.467c-5.31 5.312-5.31 13.92 0 19.23 2.652 2.66 6.133 3.986 9.615 3.986 3.48 0 6.962-1.325 9.614-3.985l38.467-38.467c5.312-5.31 5.312-13.92 0-19.23-5.303-5.31-13.925-5.31-19.23 0zM108.8 258.4c0-7.507-6.094-13.6-13.6-13.6H40.8c-7.508 0-13.6 6.093-13.6 13.6S33.29 272 40.8 272h54.4c7.507 0 13.6-6.093 13.6-13.6zM285.6 81.6c7.505 0 13.6-6.093 13.6-13.6V13.6c0-7.507-6.095-13.6-13.6-13.6C278.09 0 272 6.093 272 13.6V68c0 7.507 6.092 13.6 13.6 13.6zm134.632 55.767c3.482 0 6.957-1.326 9.615-3.984l38.467-38.468c5.31-5.31 5.31-13.92 0-19.23s-13.918-5.31-19.23 0l-38.467 38.468c-5.31 5.31-5.31 13.92 0 19.23 2.653 2.658 6.133 3.984 9.615 3.984zm-278.88-3.985c2.65 2.66 6.133 3.984 9.614 3.984 3.482 0 6.963-1.326 9.615-3.984 5.312-5.31 5.312-13.92 0-19.23l-38.466-38.468c-5.304-5.31-13.927-5.31-19.23 0-5.31 5.31-5.31 13.92 0 19.23l38.467 38.468zM530.397 244.8H476c-7.508 0-13.602 6.093-13.602 13.6S468.492 272 476 272h54.398c7.508 0 13.602-6.093 13.602-13.6s-6.094-13.6-13.602-13.6zm-100.55 138.618c-5.31-5.31-13.92-5.31-19.23 0s-5.31 13.92 0 19.23l38.467 38.467c2.66 2.66 6.135 3.986 9.615 3.986 3.482 0 6.957-1.325 9.615-3.985 5.31-5.31 5.31-13.918 0-19.23l-38.467-38.467zM340 482.8H231.2c-7.508 0-13.6 6.093-13.6 13.6s6.092 13.6 13.6 13.6H340c7.506 0 13.6-6.09 13.6-13.6s-6.094-13.6-13.6-13.6zm13.6-20.4c0 7.508-6.094 13.6-13.6 13.6H231.2c-7.508 0-13.6-6.092-13.6-13.6 0-7.242 5.677-13.11 12.817-13.52-8.466-76.527-87.618-93.574-87.618-183.68 0-78.868 63.933-142.8 142.8-142.8 78.865 0 142.798 63.933 142.798 142.8 0 90.105-79.15 107.152-87.617 183.68 7.142.41 12.82 6.278 12.82 13.52zm-13.69-231.9c-4.63-13.852-18.773-29.736-43.893-33.184V180.9c0-5.63-4.57-10.2-10.2-10.2s-10.2 4.57-10.2 10.2v16.714c-20.863 4.04-36.973 20.23-39.108 40.807-1.986 19.197 9.186 44.446 47.21 52.41 20.68 4.33 32.6 15.958 31.105 30.34-1.21 11.688-11.56 23.515-29.016 23.515-20.72 0-31.662-10.752-34.742-19.96-1.79-5.337-7.562-8.233-12.907-6.438-5.344 1.795-8.227 7.568-6.438 12.906 4.638 13.852 18.782 29.736 43.894 33.178v16.43c0 5.63 4.57 10.2 10.2 10.2s10.2-4.57 10.2-10.2v-16.714c20.862-4.04 36.972-20.23 39.106-40.807 1.986-19.198-9.186-44.446-47.213-52.41-20.68-4.33-32.6-15.958-31.103-30.34 1.21-11.69 11.56-23.515 29.016-23.515 20.72 0 31.667 10.75 34.74 19.958 1.79 5.338 7.542 8.235 12.907 6.44 5.346-1.788 8.23-7.562 6.44-12.913z" fill="#FFDE24"/></symbol>
<symbol id="shopping-cart" viewBox="0 0 510 510"><path d="M153 408c-28.05 0-51 22.95-51 51s22.95 51 51 51 51-22.95 51-51-22.95-51-51-51zM0 0v51h51l91.8 193.8-35.7 61.2c-2.55 7.65-5.1 17.85-5.1 25.5 0 28.05 22.95 51 51 51h306v-51H163.2c-2.55 0-5.1-2.55-5.1-5.1v-2.55l22.95-43.35h188.7c20.4 0 35.7-10.2 43.35-25.5l91.8-165.75c5.1-5.1 5.1-7.65 5.1-12.75 0-15.3-10.2-25.5-25.5-25.5H107.1L84.15 0H0zm408 408c-28.05 0-51 22.95-51 51s22.95 51 51 51 51-22.95 51-51-22.95-51-51-51z" fill="#FFDE24"/></symbol>
<symbol id="smartphone-call" viewBox="0 0 35 35"><path d="M25.302 0H9.698c-1.3 0-2.364 1.063-2.364 2.364v30.27C7.334 33.937 8.398 35 9.698 35h15.604c1.3 0 2.364-1.062 2.364-2.364V2.364c0-1.3-1.064-2.364-2.364-2.364zM15.004 1.704h4.992c.158 0 .286.128.286.287 0 .16-.128.287-.286.287h-4.992c-.158 0-.286-.128-.286-.286 0-.158.128-.286.286-.286zM17.5 33.818c-.653 0-1.182-.53-1.182-1.183s.53-1.182 1.182-1.182 1.182.528 1.182 1.182-.53 1.183-1.182 1.183zm8.52-3.193H8.98V3.75h17.04v26.875z" fill="#FFDE24"/></symbol>
<symbol id="back" viewBox="0 0 477.175 477.175" ><path d="M145.188 238.575l215.5-215.5c5.3-5.3 5.3-13.8 0-19.1s-13.8-5.3-19.1 0l-225.1 225.1c-5.3 5.3-5.3 13.8 0 19.1l225.1 225c2.6 2.6 6.1 4 9.5 4s6.9-1.3 9.5-4c5.3-5.3 5.3-13.8 0-19.1l-215.4-215.5z" fill="#FFF"/></symbol>
    <symbol id="next" viewBox="0 0 477.175 477.175" ><path d="M360.73 229.075l-225.1-225.1c-5.3-5.3-13.8-5.3-19.1 0s-5.3 13.8 0 19.1l215.5 215.5-215.5 215.5c-5.3 5.3-5.3 13.8 0 19.1 2.6 2.6 6.1 4 9.5 4 3.4 0 6.9-1.3 9.5-4l225.1-225.1c5.3-5.2 5.3-13.8.1-19z" fill="#FFF"/></symbol>
    <symbol id="matrix" viewBox="0 0 290 290"><path d="M0 220h70v70H0zM0 110h70v70H0zM0 0h70v70H0zM110 220h70v70h-70zM110 110h70v70h-70zM110 0h70v70h-70zM220 220h70v70h-70zM220 110h70v70h-70zM220 0h70v70h-70z"/></symbol>
    <symbol id="table" viewBox="0 0 349.569 349.569"><circle cx="39.081" cy="54.785" r="39.081"/><circle cx="39.081" cy="174.785" r="39.081"/><circle cx="39.081" cy="294.785" r="39.081"/><path d="M344.57 20.535H113.58c-2.756 0-5 2.243-5 5v58.5c0 2.757 2.244 5 5 5h230.99c2.756 0 5-2.243 5-5v-58.5c0-2.757-2.244-5-5-5zM344.57 140.535H113.58c-2.756 0-5 2.243-5 5v58.5c0 2.757 2.244 5 5 5h230.99c2.756 0 5-2.243 5-5v-58.5c0-2.757-2.244-5-5-5zM344.57 260.535H113.58c-2.756 0-5 2.243-5 5v58.5c0 2.757 2.244 5 5 5h230.99c2.756 0 5-2.243 5-5v-58.5c0-2.757-2.244-5-5-5z"/></symbol>
    <symbol id="login_close" viewBox="0 0 348.333 348.334"><path d="M336.56 68.61L231.015 174.166l105.543 105.55c15.698 15.704 15.698 41.144 0 56.85-7.845 7.843-18.13 11.768-28.408 11.768-10.296 0-20.58-3.92-28.42-11.77l-105.565-105.56L68.61 336.563c-7.844 7.844-18.13 11.77-28.417 11.77-10.285 0-20.563-3.92-28.413-11.77-15.7-15.698-15.7-41.14 0-56.85l105.54-105.55L11.774 68.612c-15.7-15.698-15.7-41.144 0-56.843C27.47-3.92 52.9-3.92 68.604 11.767L174.165 117.32 279.72 11.768c15.706-15.687 41.14-15.687 56.833 0 15.705 15.7 15.705 41.145.006 56.844z" fill="#FFFFFF" /></symbol>
    <symbol id="search" viewBox="0 0 56.966 56.966" width="30" height="30"><path d="M55.146 51.887l-13.558-14.1c3.486-4.145 5.396-9.36 5.396-14.787 0-12.682-10.318-23-23-23s-23 10.318-23 23 10.318 23 23 23c4.76 0 9.298-1.436 13.177-4.162l13.662 14.208c.57.593 1.34.92 2.162.92.78 0 1.518-.297 2.08-.837 1.19-1.148 1.23-3.05.082-4.243zM23.984 6c9.374 0 17 7.626 17 17s-7.626 17-17 17-17-7.626-17-17 7.626-17 17-17z" fill="#FFFFFF"/></symbol>
</svg>